# xmcd
#
# Track frame offsets:
#	150
#	22267
#	38197
#	55700
#	82127
#	103520
#	121447
#	140297
#	169365
#	198100
#	214622
#	230895
#
# Disc length: 3344 seconds
#
# Revision: 1
# Processed by: cddbd v1.4b41PL1 Copyright (c) Steve Scherf et al.
# Submitted via: audiograbber 1.80
#
DISCID=ab0d0e0c
DTITLE=Nightnoise - THE WHITE HORSE SESSIONS
DYEAR=1900
DGENRE=
TTITLE0=SILKY FLANKS
TTITLE1=SHDOW OF TIME
TTITLE2=JIG OF SORTS
TTITLE3=Shuan
TTITLE4=DO WE
TTITLE5=MURRACH NA GEALAICH(MURDO OF THE MOON)
TTITLE6=HUGH
TTITLE7=MOONDANCE
TTITLE8=THE CRICKET WICKET
TTITLE9=NIGHT IN THAT LAND
TTITLE10=AT THE RACES
TTITLE11=HEARTWOOD
EXTD=
EXTT0=
EXTT1=
EXTT2=
EXTT3=
EXTT4=
EXTT5=
EXTT6=
EXTT7=
EXTT8=
EXTT9=
EXTT10=
EXTT11=
PLAYORDER=
